<svg width="286" height="88" viewBox="0 0 286 88" fill="none" xmlns="http://www.w3.org/2000/svg">
<path fill-rule="evenodd" clip-rule="evenodd" d="M132.733 20.2734V40.5468H137.132H141.531L141.532 31.2707C141.532 20.802 141.726 19.8886 144.209 18.6485C145.967 17.7698 147.552 17.8039 149.109 18.7533C151.287 20.081 151.477 21.0904 151.477 31.3541V40.5468H155.876H160.274V29.9572C160.274 17.6719 160.005 16.0232 157.538 13.2209C155.64 11.0643 153.284 10.121 149.947 10.1822C147.032 10.2358 145.158 10.9656 143.053 12.8675L141.531 14.2422V7.12093V0H137.132H132.733V20.2734ZM0 21.0124V40.5468H10.8497C22.5876 40.5468 24.7339 40.318 27.8774 38.7321C34.3221 35.4807 35.1659 25.821 29.3494 21.88C28.46 21.2775 27.4268 20.6735 27.0531 20.5373C26.4724 20.3258 26.5949 20.0894 27.8912 18.9185C30.0658 16.9539 30.9838 14.8351 30.9838 11.7807C30.9838 8.42914 29.6347 5.75955 27.0363 3.96899C24.0232 1.89231 23.3197 1.78865 11.1886 1.62723L0 1.47843V21.0124ZM8.64755 9.78554C8.34919 10.5632 8.35531 15.2291 8.65635 16.3526C8.87898 17.1826 9.04499 17.2133 13.3372 17.211C20.1303 17.2079 22.186 16.3078 22.186 13.3372C22.186 10.2212 19.7891 9.1804 12.6116 9.1804C9.56139 9.1804 8.83728 9.29095 8.64755 9.78554ZM51.3988 10.4825C49.2463 11.1672 48.321 11.8771 46.8089 14.0039L45.5195 15.8178V13.2641V10.7105H41.1205H36.7216V25.6286V40.5468H41.08H45.4384L45.5769 33.1833C45.7073 26.2387 45.7693 25.7124 46.6693 23.9268C47.9752 21.3352 49.8354 19.9479 52.7452 19.3951L55.105 18.9464L54.9982 14.5418C54.8915 10.1505 54.8881 10.1363 53.9348 10.0583C53.4089 10.0154 52.2678 10.2063 51.3988 10.4825ZM67.4262 10.3486C60.0677 11.801 54.9061 19.1251 55.5789 27.1591C55.922 31.2585 57.1281 33.8646 60.0203 36.7564C63.4863 40.2228 65.69 41.0792 71.1481 41.0819C75.7012 41.0846 77.9795 40.4068 80.8866 38.1851C83.7241 36.0166 83.7585 35.7439 81.4512 33.7085C80.3488 32.7358 79.233 31.8128 78.9717 31.6567C78.6974 31.4934 77.5587 31.9382 76.2792 32.7086C73.0423 34.6579 68.9161 34.6308 66.5552 32.6444C65.6207 31.8579 64.2628 29.6003 64.2628 28.8333C64.2628 28.7538 68.9104 28.6887 74.5907 28.6887H84.9187V26.0915C84.9187 17.8123 80.3717 11.6763 73.2619 10.362C70.7227 9.89265 69.7473 9.89035 67.4262 10.3486ZM176.054 10.5024C171.145 11.6163 167.153 14.7422 165.135 19.0535C163.537 22.4663 163.23 27.3381 164.403 30.6656C166.585 36.8547 171.812 40.725 178.635 41.2047C185.552 41.6913 191.676 38.223 194.575 32.1788C195.914 29.3884 196.259 24.1777 195.321 20.9481C193.124 13.3919 184.329 8.62384 176.054 10.5024ZM267.893 10.3214C259.946 12.0049 254.783 20.0041 256.223 28.4026C256.878 32.2198 258.229 34.7826 260.878 37.2353C263.616 39.7699 266.396 40.9205 270.481 41.2085C275.376 41.5535 279.547 40.1164 282.537 37.0548L284.001 35.5549L281.715 33.4782C280.457 32.336 279.272 31.3935 279.082 31.384C278.891 31.3744 278.203 31.7642 277.552 32.2504C275.571 33.7299 274.086 34.1419 271.298 33.9843C268.235 33.8114 266.626 32.875 265.458 30.5845C265.042 29.769 264.702 29.0089 264.702 28.8953C264.702 28.7817 269.349 28.6887 275.029 28.6887H285.357V26.2211C285.357 20.8758 283.646 16.61 280.26 13.5151C277.234 10.7495 272.114 9.42751 267.893 10.3214ZM101.197 18.9346C99.7416 23.6682 98.4315 27.5412 98.2854 27.5412C98.1392 27.5412 97.9105 26.9816 97.777 26.298C97.5475 25.121 95.4413 17.0721 94.2238 12.7187L93.6623 10.7105H89.2905C86.886 10.7105 84.9187 10.8019 84.9187 10.9132C84.9187 11.0853 92.0545 34.6396 93.4905 39.208L93.9717 40.738H97.9346H101.898L104.451 32.6336C105.855 28.1762 107.126 24.2171 107.276 23.8358C107.458 23.3691 108.447 26.0211 110.298 31.9401L113.047 40.738H117.008H120.97L124.398 29.645C129.297 13.7943 130.046 11.3213 130.051 10.9847C130.054 10.8202 128.125 10.7342 125.765 10.7935L121.475 10.9017L119.286 18.9346C118.081 23.3526 117.035 27.2256 116.96 27.5412C116.834 28.0748 116.222 26.2705 112.616 14.7269L111.241 10.3279H107.542H103.843L101.197 18.9346ZM236.887 11.1347C232.42 12.8518 229.947 18.1034 231.484 22.6071C232.528 25.6665 234.493 27.0829 240.489 29.0973C245.392 30.7444 245.958 31.0783 245.958 32.3227C245.958 35.094 240.478 34.9678 235.305 32.0775C234.179 31.4482 233.152 31.0393 233.023 31.1682C232.894 31.2975 232.054 32.5568 231.157 33.9667L229.527 36.5303L230.376 37.2399C233.149 39.5591 237.944 41.0811 242.532 41.0984C245.899 41.111 246.38 41.015 248.734 39.8559C251.536 38.4766 252.654 37.2177 253.463 34.5294C254.48 31.151 253.948 28.4022 251.863 26.2552C250.237 24.5805 248.551 23.6831 244.122 22.1355C239.73 20.6001 238.996 20.1108 239.146 18.8179C239.41 16.5354 242.833 16.4287 247.431 18.5597C248.556 19.0815 249.617 19.5083 249.788 19.5083C250.117 19.5083 253.226 14.3145 253.226 13.7649C253.226 13.3162 249.215 11.4625 246.914 10.8482C244.039 10.0797 239.277 10.2159 236.887 11.1347ZM199.361 22.0903C199.478 33.0357 199.516 33.5448 200.368 35.4279C201.92 38.8553 204.378 40.6137 208.355 41.1412C211.103 41.5057 214.024 40.569 216.251 38.6089L218.034 37.0391V38.7929V40.5468H222.433H226.832V25.6286V10.7105H222.452H218.071L217.957 20.4375C217.85 29.6095 217.798 30.2261 217.043 31.2436C216.604 31.8372 215.528 32.5755 214.653 32.8846C213.253 33.3788 212.87 33.3788 211.471 32.8846C210.596 32.5755 209.52 31.8372 209.08 31.2436C208.326 30.2261 208.274 29.6095 208.166 20.4375L208.052 10.7105H203.646H199.24L199.361 22.0903ZM67.4717 17.9419C66.0805 18.79 64.8037 20.4658 64.438 21.9224L64.1798 22.951H70.315H76.4498L76.1212 21.805C75.0226 17.9748 70.6329 16.0141 67.4717 17.9419ZM267.728 18.0854C266.483 18.925 264.721 21.4837 264.708 22.4729C264.703 22.8355 266.172 22.951 270.795 22.951H276.888L276.56 21.805C276.093 20.177 274.77 18.4442 273.488 17.7813C271.827 16.9222 269.252 17.0583 267.728 18.0854ZM177.296 18.103C175.153 18.9418 174.453 19.5198 173.388 21.3322C172.517 22.8137 172.325 23.5936 172.328 25.6286C172.336 30.1676 175.085 33.2751 179.365 33.585C182.947 33.8439 185.816 31.874 186.998 28.3449C189.054 22.2032 183.041 15.8553 177.296 18.103ZM8.6705 24.7362C8.34881 25.0575 8.3446 30.871 8.66477 32.0679L8.90384 32.9603L15.0669 32.818C21.7931 32.6627 23.0015 32.3533 23.936 30.5459C25.2958 27.9161 23.7554 25.497 20.317 24.8617C18.0131 24.4359 9.06679 24.3395 8.6705 24.7362ZM47.8146 66.354V86.8313H52.2135H56.6125V82.1248V77.4183L58.0002 76.1002C58.7634 75.3753 59.4542 74.9541 59.5357 75.1645C59.6171 75.3749 61.2868 78.043 63.2465 81.0935L66.8096 86.64L71.6565 86.7471C74.5494 86.811 76.5033 86.707 76.5033 86.4893C76.5033 86.2889 74.0793 82.388 71.1167 77.8207C68.1538 73.2531 65.636 69.2722 65.5217 68.9739C65.3901 68.6315 67.308 66.4064 70.717 62.9466C73.6892 59.93 76.1208 57.288 76.1208 57.0753C76.1208 56.8374 74.2281 56.6687 71.2043 56.6366L66.2875 56.5842L61.5458 61.8208L56.8037 67.0571L56.6125 56.5754L56.4212 46.0933L52.1179 45.985L47.8146 45.8768V66.354ZM110.165 66.354V86.8313H114.564H118.963V85.1314V83.4319L120.188 84.5511C122.143 86.3367 123.862 86.9816 127.101 87.1453C130.759 87.3301 133.288 86.5922 135.985 84.5519C141.632 80.2792 143.266 70.5016 139.52 63.3952C135.703 56.1534 125.961 53.9394 120.385 59.0464L118.979 60.3343L118.875 53.2138L118.771 46.0933L114.468 45.985L110.165 45.8768V66.354ZM0.382517 67.3229V86.8313H4.78146H9.1804V67.3229V47.8146H4.78146H0.382517V67.3229ZM176.723 52.9568V56.5685L175.097 56.6863L173.471 56.8037L173.362 60.5333L173.253 64.2628H174.988H176.723V71.7031C176.723 82.222 177.392 84.5565 180.933 86.3749C182.433 87.1449 183.091 87.2402 186.094 87.1231C188.191 87.0413 190.098 86.7414 190.971 86.3558L192.406 85.7227V82.0888V78.4549L191.079 79.0092C189.394 79.7134 187.409 79.7188 186.454 79.0211C185.773 78.5242 185.702 77.8888 185.592 71.3707L185.473 64.2628H189.035H192.597L192.554 60.5333L192.511 56.8037L189.016 56.6936L185.521 56.5838V52.964V49.3446H181.122H176.723V52.9568ZM28.9075 56.9781C27.8705 57.3959 26.3646 58.3801 25.5605 59.1654L24.0985 60.5929V58.5901V56.5872L19.7952 56.6955L15.4919 56.8037V71.7219V86.64L19.7708 86.7479L24.05 86.8558L24.1697 77.3762C24.3024 66.9129 24.4868 66.0205 26.7635 64.8431C29.1933 63.5865 32.3395 64.4277 33.5593 66.66C34.1541 67.7483 34.2352 69.0351 34.2352 77.3747V86.8527L38.6342 86.7464L43.0331 86.64L43.0197 75.7383C43.0083 66.4458 42.9088 64.5524 42.3473 62.9117C41.5099 60.4659 39.7668 58.3468 37.7364 57.306C35.4482 56.1328 31.3805 55.9821 28.9075 56.9781ZM205.985 56.7601C201.729 57.7952 197.179 61.459 195.458 65.2367C191.082 74.8417 196.893 85.5372 207.436 87.2842C216.855 88.8452 225.637 82.2139 226.332 73.0144C227.154 62.1544 217.037 54.0726 205.985 56.7601ZM243.253 57.2819C241.785 58.0255 240.818 58.8712 239.952 60.1672L238.726 62.0006L238.613 59.4022L238.499 56.8037H234.291H230.084L229.984 71.8175L229.884 86.8313H234.287H238.69L238.7 80.2329C238.705 76.6035 238.88 72.8954 239.088 71.9923C239.954 68.2379 242.489 65.9864 246.367 65.527L248.253 65.3036V60.767V56.2299H246.792C245.956 56.2299 244.441 56.6802 243.253 57.2819ZM77.6509 67.6611C77.6509 80.1808 77.8731 81.595 80.2543 84.2363C82.235 86.4327 84.1135 87.1951 87.5711 87.2054C90.8091 87.2149 92.6647 86.51 94.9758 84.3935L96.3942 83.0941V84.9627V86.8313H100.798H105.201L105.101 71.8175L105.001 56.8037L100.698 56.6955L96.3942 56.5872L96.3919 65.4934C96.3907 70.3919 96.219 75.0146 96.0102 75.7666C95.0206 79.3282 90.285 80.5121 87.6319 77.8609L86.64 76.8702L86.4488 66.8368L86.2575 56.8037L81.9542 56.7333L77.6509 56.6626V67.6611ZM151.094 57.148C147.269 58.2236 146.121 58.6654 146.121 59.0625C146.121 60.179 148.157 65.4103 148.591 65.4103C148.863 65.4103 149.839 65.1411 150.759 64.8117C152.938 64.0321 158.163 63.9067 159.793 64.5948C161.206 65.1908 162.57 67.1431 162.57 68.5696V69.5343L160.613 68.9605C157.713 68.1105 151.525 68.4345 148.945 69.5714C146.505 70.6462 144.8 72.3729 144.034 74.5445C142.245 79.6159 144.632 84.9424 149.468 86.6679C150.257 86.9499 152.28 87.184 153.963 87.1886C157.142 87.1974 159.036 86.6182 161.45 84.8988L162.57 84.1016V85.4665V86.8313H166.804H171.037L170.916 75.8339L170.794 64.8366L169.645 62.5598C168.29 59.8757 166.107 58.045 163.248 57.1962C160.836 56.4797 153.572 56.451 151.094 57.148ZM122.515 64.5684C118.933 66.4799 117.631 71.9732 119.763 76.1801C121.756 80.1131 126.829 81.0943 130.063 78.1723C134.076 74.5468 133.436 66.9553 128.923 64.6533C127.061 63.7032 124.207 63.6653 122.515 64.5684ZM206.857 64.6216C204.076 66.0113 202.734 68.3129 202.734 71.6909C202.734 77.2095 207.413 81.0721 212.317 79.6025C216.724 78.2824 218.984 72.7321 216.929 68.2792C215.174 64.4759 210.527 62.7882 206.857 64.6216ZM154.299 74.3754C151.714 75.5004 151.101 78.0988 152.977 79.9754C153.947 80.9455 154.38 81.0935 156.241 81.0935C160.25 81.0935 162.57 79.3282 162.57 76.2784C162.57 74.6956 162.51 74.6103 161.135 74.2285C159.153 73.6781 155.732 73.7515 154.299 74.3754Z" fill="white"/>
</svg>
