<svg width="103" height="76" viewBox="0 0 103 76" fill="none" xmlns="http://www.w3.org/2000/svg">
<mask id="mask0_2317_803" style="mask-type:luminance" maskUnits="userSpaceOnUse" x="0" y="0" width="103" height="76">
<path d="M102.04 0H0V75.96H102.04V0Z" fill="white"/>
</mask>
<g mask="url(#mask0_2317_803)">
<path d="M50.7101 35.56C42.7501 35.39 36.4101 28.77 36.5901 20.81C36.6701 16.95 38.2501 13.36 41.0401 10.69C43.8301 8.02004 47.4901 6.60003 51.3401 6.68003C59.3001 6.85003 65.6401 13.47 65.4701 21.43C65.3901 25.29 63.8101 28.8801 61.0201 31.5501C58.2301 34.2201 54.5801 35.64 50.7201 35.56H50.7101ZM40.2101 9.83006C37.1901 12.7201 35.4801 16.61 35.3901 20.78C35.2001 29.4 42.0601 36.56 50.6801 36.75C54.8501 36.84 58.8101 35.3 61.8301 32.41C64.8501 29.52 66.5601 25.63 66.6501 21.46C66.8401 12.84 59.9801 5.68006 51.3601 5.49006C47.1901 5.40006 43.2301 6.94006 40.2101 9.83006Z" fill="white"/>
<path d="M50.59 41.2791C39.47 41.0391 30.63 31.7991 30.87 20.6891C30.99 15.3091 33.19 10.2891 37.08 6.56906C40.97 2.83906 46.08 0.859059 51.46 0.969059C56.84 1.08906 61.86 3.28905 65.58 7.17905C69.3 11.0691 71.29 16.1791 71.17 21.5591C70.93 32.6791 61.69 41.5191 50.58 41.2791H50.59ZM36.42 5.86905C32.35 9.76905 30.04 15.0291 29.91 20.6591C29.66 32.2991 38.92 41.9791 50.56 42.2291C62.2 42.4791 71.88 33.2191 72.13 21.5691C72.25 15.9291 70.17 10.5791 66.27 6.50907C62.37 2.43907 57.11 0.129057 51.48 -0.000942583C45.84 -0.120943 40.49 1.95907 36.42 5.85907V5.86905Z" fill="white"/>
</g>
<path d="M55.2299 33.6795C47.3899 35.0895 41.1099 32.0395 39.9599 28.2695C39.2199 25.8395 40.2999 25.3095 40.4699 23.5495C39.1099 24.2695 38.8599 22.3895 40.0599 22.2295C41.3299 22.0595 41.8999 23.3895 41.2799 25.1595C40.3899 27.7095 41.9499 28.8895 42.3899 28.7595C42.4099 28.6295 42.5699 28.2995 42.6399 28.1595C41.5699 26.7995 42.0199 24.8095 43.8399 24.6495C44.5799 24.5795 44.5099 25.1195 43.9899 25.1995C42.5899 25.3995 42.6599 26.9595 43.2399 27.1595C43.3399 27.1595 43.4599 27.1295 43.5599 27.0295C43.5399 26.7095 43.7599 26.2595 44.1199 26.3495C44.9199 26.5495 44.6199 27.5795 44.0699 27.6595C43.8599 28.2895 43.4699 29.1695 43.5499 29.6295C43.6299 30.0895 43.9499 30.1795 44.2199 29.9095C44.4099 29.7195 44.5099 29.2495 44.6299 28.7395C44.4999 28.1595 44.7799 27.7295 45.2699 27.9295C45.6099 28.0695 45.6499 28.5895 45.3099 28.9995C45.2699 29.4895 45.0499 30.0595 45.0999 30.4295C45.1499 30.8095 45.6699 30.7795 45.8499 30.5795C46.0399 30.3695 46.2299 29.0295 46.3099 28.7395C46.0199 28.4795 46.1299 27.6895 46.7299 27.6495C47.4299 27.5895 47.2699 28.5495 47.0699 28.7895C47.2699 29.5395 46.9499 30.3795 47.0899 30.7095C47.2299 31.0395 47.7799 31.1195 48.0299 30.8495C48.2799 30.5795 47.9699 29.9995 48.0999 29.3295C47.8599 28.7495 48.1399 28.2895 48.4799 28.2595C49.2599 28.1995 49.0399 28.8995 48.8999 29.3995C48.9399 29.9095 49.0299 30.5095 49.1999 30.9795C49.3099 31.2795 49.8199 31.3495 49.9799 30.9595C50.0799 30.7195 49.8499 30.0295 49.7899 29.5395C49.4499 28.7495 49.7399 28.5395 50.0399 28.5095C50.3299 28.4895 50.7199 28.6495 50.6699 29.4295C50.8299 29.9595 50.9599 30.5895 51.1599 30.9995C51.2499 31.3295 51.6499 31.3595 51.7799 31.0195C51.8999 30.6795 51.6699 30.2695 51.4199 29.7195C50.8599 29.1695 51.3699 28.7495 51.6899 28.7295C52.0099 28.6995 52.5099 28.7895 52.3999 29.6395C52.5699 30.1595 52.6899 30.6295 52.7999 30.8995C52.9299 31.2195 53.3699 31.2495 53.5599 31.0495C53.7499 30.8395 53.3899 30.4795 53.2899 30.0295C52.8699 29.6195 52.9399 29.0595 53.4299 29.0195C53.6799 28.9995 54.1599 29.0195 54.1199 29.7495C54.2599 30.0595 54.2599 30.4595 54.4699 30.7995C54.7199 31.2095 55.1099 31.0595 55.2699 30.6895C55.4199 30.3095 54.4499 29.2295 55.2099 29.1695C55.9699 29.1095 56.0999 30.1095 56.3499 30.3395C56.5999 30.5795 56.7799 30.4195 56.8999 30.2895C57.0999 30.0695 56.5699 29.4695 56.9399 29.2995C57.6899 28.9595 57.6699 29.8095 58.1999 29.8195C60.5099 29.8595 62.3199 26.0695 62.0599 24.9995C61.2899 24.5395 61.5599 23.3995 62.2099 23.3895C63.7999 23.3595 63.5799 25.6095 62.3699 28.2195C60.7899 31.6395 56.8999 33.3995 55.2399 33.6995L55.2299 33.6795Z" fill="white"/>
<path d="M57.28 15.0401C57.02 15.2901 56.21 15.3401 55.8 15.1001C55.46 14.9001 55.38 13.3901 55.55 12.9801C55.72 12.5701 57.49 12.5601 57.63 12.8401C57.77 13.1201 57.53 14.8001 57.28 15.0401ZM54.11 13.1801C54.17 13.3901 54.38 14.3501 54.43 14.9201C54.46 15.1301 54.38 15.3901 54.25 15.4401C53.93 15.5601 53.4 15.5301 53.12 15.4201C52.8 15.3001 53.02 14.0401 51.86 13.8201C52.02 13.7101 52.1 13.5901 52.14 13.3101C52.16 13.1301 52.38 12.9301 52.66 12.9001C53.19 12.8401 53.52 12.8201 53.7 12.8301C53.88 12.8301 54.07 12.9601 54.12 13.1801H54.11ZM51.87 19.4201C51.19 19.4001 50.94 15.1801 51.64 15.2001C52.27 15.2101 52.34 19.4301 51.87 19.4201ZM58.59 15.6701C58.59 15.6701 58.56 15.6201 58.56 15.6001C58.92 14.2301 59.18 13.6301 59.31 12.2601C59.34 11.9301 59.11 11.6701 58.89 11.6201C58.05 11.4101 57.66 11.4201 57.33 11.3901C57.29 11.3901 57.22 11.3701 57.19 11.3301C57.09 11.1301 56.95 10.5401 56.95 10.2301C57.44 9.19008 56.56 8.82007 55.73 8.84007C55.19 8.81007 54.63 9.06007 54.57 9.47007C54.5 10.2601 55.37 10.5501 55.68 10.5801C55.73 10.6901 55.86 11.2401 55.88 11.4601C55.88 11.4901 55.86 11.5201 55.82 11.5201C54.42 11.5501 52.6 11.7901 51.68 11.8601C51.55 11.8801 51.48 11.8001 51.46 11.7301C51.29 11.2601 50.56 9.03008 51.93 9.07008C52.74 9.10008 53.42 8.43008 52.65 7.92008C52.45 7.79008 51.41 7.66008 50.85 7.76008C50.38 7.84008 50.16 8.37009 50.22 8.83009C50.31 9.55009 48.52 9.62007 47.99 9.41007C47.61 9.26007 47.15 8.81008 46.98 8.51008C46.64 7.89008 46.04 8.36007 46.15 8.69007C46.89 10.9301 49.26 10.5801 49.88 10.6101C49.91 10.6101 49.96 10.6501 49.97 10.6701C50.12 11.4801 50.6 12.3301 50.6 12.6501C50.31 12.9801 50.43 13.6801 50.85 13.8001C50.34 14.2901 50.11 15.9901 50.19 17.4101C50.29 19.2101 51.02 20.9601 52.17 20.7701C53.63 20.5301 53.05 17.1601 53.41 16.8701C53.59 16.7301 54.06 16.7701 54.23 16.7901C54.27 16.7901 54.29 16.8401 54.29 16.8601C54.17 18.1801 53.86 20.3101 53.78 20.8701C53.7 21.4501 53.65 21.7501 53.94 22.2801C54.26 22.8701 54.85 24.7301 54.16 26.7101C54.14 26.7901 54.07 26.8101 54.05 26.8201C53.43 26.9601 53.1 27.1501 52.88 27.3101C52.64 27.4801 52.37 27.8201 52.55 28.0301C52.81 28.2701 54.47 28.1701 54.99 27.4101C55 27.3901 55.04 27.3201 55.04 27.3001C55.22 26.8001 55.44 26.4401 55.61 26.1201C56.38 24.6601 56.49 22.8601 55.44 22.0401C55.15 21.8101 54.84 21.6001 55.13 21.0301C55.69 19.9301 55.75 18.7201 55.82 17.7101C55.85 17.3001 56.53 17.0701 56.79 17.4501C57.43 18.9601 56.93 20.2601 56.92 20.8001C56.91 21.3401 57.11 21.5901 57.18 21.9101C57.61 23.8801 57.4 25.4701 57 27.5101C57 27.5501 56.96 27.5801 56.92 27.6001C56.46 27.7501 56.17 27.8501 55.89 28.0501C55.6 28.2501 55.48 28.5201 55.61 28.6601C56 29.1001 57.75 28.6201 57.88 28.1201C58.21 26.8701 60.56 23.9901 58.92 22.1401C58.17 21.3001 58.17 21.6401 58.16 21.2101C58.16 21.0101 58.63 19.8901 58.75 19.0201C58.87 18.1201 58.29 17.2601 58.43 16.7701C58.43 16.7501 58.47 16.7301 58.49 16.7301C58.73 16.7801 59.31 16.9301 59.68 17.1401C59.8 17.2001 60 17.1501 60.02 16.7101C60.05 16.2201 58.82 15.7601 58.58 15.6701H58.59Z" fill="white"/>
<path d="M43.7898 21.8391C43.5498 21.7091 43.7398 21.2291 44.0798 21.1791C44.3198 21.1391 45.1498 21.0391 45.4298 21.1691C45.6498 21.2691 45.8098 21.7291 45.6798 21.8691C45.4398 22.1291 44.1298 22.0391 43.7798 21.8491L43.7898 21.8391ZM41.0398 20.3191C41.0198 20.0291 41.3998 19.7091 41.6998 19.7791C41.9398 19.8291 42.6698 20.5991 42.6998 20.7791C42.7598 21.1091 42.4998 21.3791 42.2798 21.3891C41.9398 21.4191 41.0698 20.6291 41.0398 20.3191ZM41.1898 18.7591C41.0198 18.9591 40.6398 19.0891 40.4598 18.9391C40.1898 18.7191 40.1098 17.8291 40.2798 17.4491C40.3998 17.1891 41.0198 17.0491 41.1398 17.3491C41.2198 17.5491 41.3098 18.6191 41.1898 18.7591ZM41.3998 16.2291C41.0998 16.3791 40.8198 16.1791 40.7898 15.7991C40.7598 15.4291 41.6298 14.5191 41.9498 14.6091C42.0998 14.6491 42.3398 14.9491 42.3098 15.2091C42.2898 15.3891 41.5798 16.1391 41.3998 16.2291ZM46.1298 19.4591C45.8198 19.3191 44.9998 18.2491 45.2898 17.9591C45.5598 17.6891 46.7098 17.1091 46.8898 17.2791C47.5998 17.9391 46.7398 19.7291 46.1298 19.4591ZM42.7998 19.2391C42.7998 19.0291 43.8698 18.3091 44.2898 18.4591C44.6298 18.5891 45.1598 19.9191 44.8698 20.0591C44.0898 20.4291 42.7898 19.5791 42.7898 19.2391H42.7998ZM43.0698 15.9791C43.2198 15.9491 43.9398 17.0491 43.8098 17.4591C43.6998 17.8091 42.3798 18.2991 42.2498 18.1591C41.8498 17.7591 42.1998 16.1591 43.0698 15.9691V15.9791ZM46.2998 16.2691C46.2998 16.6091 45.1098 17.1791 44.8698 17.0391C44.5198 16.8391 43.8098 15.7791 43.9598 15.5991C44.4698 14.9591 46.2998 15.7291 46.2998 16.2691ZM45.2798 13.9391C45.3498 14.0991 45.4398 14.3091 45.2798 14.4991C45.1398 14.6491 43.8798 14.6991 43.6898 14.6791C43.2898 14.6491 43.1098 14.2491 43.2398 14.0391C43.4798 13.6691 45.1498 13.6391 45.2898 13.9291L45.2798 13.9391ZM48.0598 15.5591C48.0198 15.7791 47.6598 15.8691 47.4998 15.8491C47.3098 15.8291 46.4798 15.1791 46.4298 14.9591C46.3598 14.6591 46.5598 14.4791 46.7498 14.4291C47.2598 14.2991 48.1198 15.2491 48.0598 15.5691V15.5591ZM48.7598 18.5391C48.5698 18.6591 48.2198 18.6891 48.0698 18.4591C47.9698 18.2991 47.9298 17.1591 47.9998 16.9891C48.0698 16.8091 48.4598 16.6791 48.6698 16.7991C48.9198 16.9391 49.0598 18.3291 48.7498 18.5391H48.7598ZM47.5398 19.6891C47.7298 19.6691 48.0998 19.7191 48.1998 19.9791C48.3198 20.2691 47.5198 21.1691 47.1498 21.2791C46.9198 21.3491 46.5798 20.9991 46.6498 20.6691C46.6898 20.4491 47.3798 19.7091 47.5398 19.6891ZM49.6698 17.1191C49.5398 15.5191 48.0498 13.4091 45.8698 13.0491C43.5098 12.6591 39.8398 13.5991 39.4398 17.0791C39.0298 20.6691 41.7798 23.3391 45.0798 23.0891C48.6598 22.8191 49.8498 19.3791 49.6698 17.1191Z" fill="white"/>
<path d="M44.4999 3.18945L44.3999 3.98947L43.8799 4.61945L44.6799 4.71945L45.3099 5.23947L45.4099 4.42944L45.9299 3.80945L45.1199 3.70944L44.4999 3.18945Z" fill="white"/>
<path d="M59.5699 38.0799L58.9099 37.5999L58.0999 37.5499L58.5798 36.8998L58.6299 36.0898L59.2899 36.5699L60.0999 36.6198L59.6199 37.2699L59.5699 38.0799Z" fill="white"/>
<path d="M42.4199 38.0506L43.0799 37.5706L43.8899 37.5305L43.4099 36.8705L43.3599 36.0605L42.7099 36.5406L41.8999 36.5806L42.3699 37.2406L42.4199 38.0506Z" fill="white"/>
<path d="M37.94 34.569L38.77 33.599C39.15 33.159 39.75 33.189 40.32 33.679C40.9 34.169 41.03 34.759 40.65 35.199L39.82 36.169C39.72 36.289 39.71 36.359 39.85 36.469L39.55 36.689L38.75 36.009L38.93 35.689C39.07 35.809 39.13 35.789 39.23 35.669L40.06 34.699C40.22 34.509 40.21 34.2691 39.95 34.0491C39.69 33.8191 39.45 33.839 39.28 34.039L38.45 35.009C38.35 35.129 38.35 35.199 38.48 35.309L38.19 35.539L37.46 34.919L37.63 34.589C37.77 34.709 37.83 34.689 37.93 34.569H37.94Z" fill="white"/>
<path d="M35.28 31.3393L37.03 30.0293L37.36 30.4693L36.81 32.3193C36.77 32.4493 36.67 32.6493 36.67 32.6493C36.67 32.6493 36.83 32.4993 36.91 32.4393L37.68 31.8593C37.8 31.7693 37.83 31.7093 37.72 31.5593L38.05 31.3993L38.58 32.0993L38.34 32.3793C38.23 32.2393 38.16 32.2393 38.04 32.3293L36.76 33.2893C36.64 33.3793 36.62 33.4493 36.72 33.5893L36.38 33.7393L35.91 33.1093L36.4 31.4293C36.44 31.2993 36.54 31.0893 36.54 31.0893C36.54 31.0893 36.38 31.2393 36.29 31.3093L35.63 31.7993C35.51 31.8893 35.49 31.9593 35.59 32.0993L35.26 32.2593L34.73 31.5493L34.97 31.2693C35.08 31.4093 35.14 31.4093 35.27 31.3093L35.28 31.3393Z" fill="white"/>
<path d="M35.9598 27.9902L36.4198 28.9102L36.1298 29.1402C36.0498 28.9802 35.9798 28.9702 35.8498 29.0402L34.4098 29.7502C34.2698 29.8202 34.2398 29.8802 34.3198 30.0402L33.9598 30.1302L33.5098 29.2102L33.7998 28.9802C33.8798 29.1402 33.9398 29.1502 34.0798 29.0802L35.5198 28.3702C35.6598 28.3002 35.6898 28.2402 35.6098 28.0802L35.9698 27.9902H35.9598Z" fill="white"/>
<path d="M32.6998 25.2505L35.0598 25.4605L35.2698 26.1706L33.3998 27.6205C33.2598 27.7205 33.2498 27.7806 33.2898 27.9406L32.9198 27.9706L32.6298 26.9906L32.9498 26.8105C32.9998 26.9505 33.0498 26.9706 33.1698 26.8806L34.0698 26.2006C34.2198 26.1006 34.5398 25.9506 34.5398 25.9506C34.5398 25.9506 34.1898 25.9906 33.9998 25.9806L32.8598 25.8705C32.7098 25.8605 32.6798 25.9206 32.7198 26.0706L32.3498 26.1006L32.0898 25.2306L32.4098 25.0605C32.4598 25.2205 32.4998 25.2506 32.6698 25.2706L32.6998 25.2505Z" fill="white"/>
<path d="M34.44 21.5491L34.63 23.6691L34.28 23.7791C34.26 23.5991 34.2 23.5691 34.05 23.5791L32.45 23.7291C32.29 23.7391 32.24 23.7891 32.26 23.9691L31.89 23.9191L31.71 21.899L32.36 21.8391L32.44 22.119C32.23 22.169 32.19 22.2291 32.21 22.5391L32.25 23.0091L32.91 22.9491L32.87 22.5191C32.85 22.3391 32.82 22.2691 32.67 22.2891L32.71 21.9891L33.36 21.929L33.46 22.2191C33.31 22.2291 33.29 22.2991 33.3 22.4791L33.34 22.9091L34.06 22.8391L34 22.1891C33.97 21.9091 33.89 21.8591 33.69 21.8391L33.72 21.5391L34.4 21.5591L34.44 21.5491Z" fill="white"/>
<path d="M32.27 18.9705L32.23 19.3805L33.01 19.4705L33.05 19.0805C33.08 18.7805 32.95 18.6105 32.71 18.5805C32.47 18.5505 32.3 18.6805 32.27 18.9705ZM34.74 17.8405L34.65 18.6505C34.22 19.0105 33.55 18.6405 33.49 19.1905L33.45 19.5205L33.97 19.5805C34.12 19.6005 34.18 19.5705 34.2 19.3905L34.55 19.5105L34.44 20.5205L34.07 20.5605C34.09 20.3805 34.04 20.3405 33.89 20.3205L32.3 20.1405C32.15 20.1205 32.09 20.1605 32.07 20.3305L31.72 20.2104L31.87 18.8305C31.95 18.1605 32.26 17.8005 32.77 17.8505C33.1 17.8905 33.31 18.0905 33.4 18.4505C33.53 18.1205 33.85 18.0705 34.05 18.0505C34.28 18.0305 34.36 17.9905 34.38 17.7905V17.7305L34.74 17.8505V17.8405Z" fill="white"/>
<path d="M35.3099 16.0695C35.1399 16.5795 34.8599 16.8995 34.7199 17.0395L34.2 16.7095L34.2799 16.4695C34.6099 16.4695 34.81 16.2095 34.9 15.9395C34.97 15.7295 34.9399 15.4795 34.7199 15.4095C34.5299 15.3495 34.3999 15.4695 34.1799 15.8695C33.9699 16.2795 33.62 16.6495 33.09 16.4795C32.57 16.3095 32.43 15.7595 32.62 15.1695C32.76 14.7195 32.9999 14.4095 33.1299 14.2695L33.62 14.5795L33.54 14.8095C33.25 14.8395 33.0799 15.0795 33.0199 15.2895C32.9499 15.5195 32.9999 15.7195 33.1699 15.7795C33.3399 15.8295 33.46 15.7095 33.62 15.4095C33.91 14.8595 34.2199 14.4995 34.7999 14.6895C35.3699 14.8695 35.4899 15.4795 35.2999 16.0495L35.3099 16.0695Z" fill="white"/>
<path d="M36.5198 13.1191L36.0498 14.0291L35.6898 13.9291C35.7698 13.7691 35.7398 13.7092 35.5998 13.6392L34.1698 12.9091C34.0298 12.8391 33.9598 12.8492 33.8798 13.0092L33.5898 12.7791L34.0598 11.8691L34.4198 11.9691C34.3398 12.1291 34.3698 12.1892 34.5098 12.2592L35.9398 12.9892C36.0798 13.0592 36.1498 13.0492 36.2298 12.8892L36.5198 13.1191Z" fill="white"/>
<path d="M36.65 9.35022C36.48 9.26022 36.38 9.26023 36.21 9.49023L36.05 9.71021L37.43 10.7202C37.55 10.8102 37.62 10.8202 37.73 10.6702L37.98 10.9402L37.38 11.7602L37.04 11.6102C37.15 11.4602 37.12 11.4002 37 11.3102L35.62 10.3002L35.46 10.5202C35.29 10.7502 35.33 10.8502 35.46 10.9802L35.24 11.1802L34.74 10.7202L36.19 8.74023L36.79 9.08023L36.66 9.35022H36.65Z" fill="white"/>
<path d="M38.4498 7.58929C38.3098 7.50929 38.0298 7.2793 38.0298 7.2793C38.0298 7.2793 38.2298 7.58931 38.2998 7.72931L38.5898 8.41931L39.0998 7.9393L38.4398 7.58929H38.4498ZM40.7898 8.03931L40.0498 8.72931L39.7498 8.51932C39.8498 8.42932 39.8598 8.36931 39.7098 8.28931L39.5098 8.1893L38.7898 8.85931L38.8698 9.06931C38.9298 9.21931 39.0098 9.19931 39.1098 9.10931L39.2998 9.42929L38.6698 10.0193L38.3698 9.8093C38.4898 9.6993 38.5098 9.63931 38.4398 9.47931L37.7498 7.8493C37.7098 7.7493 37.6398 7.71929 37.5098 7.83929L37.3198 7.51932L38.3798 6.5293L38.6798 6.73932C38.5498 6.85932 38.5698 6.9193 38.6698 6.9693L40.2598 7.76932C40.3998 7.84932 40.4698 7.83931 40.5898 7.72931L40.7798 8.04932L40.7898 8.03931Z" fill="white"/>
<path d="M42.33 7.09055C41.87 7.37055 41.4499 7.43055 41.2499 7.44055L41.07 6.86057L41.2799 6.73056C41.5299 6.94056 41.85 6.88056 42.1 6.73056C42.29 6.61056 42.43 6.41054 42.3 6.21054C42.19 6.04054 42.02 6.04054 41.59 6.21054C41.16 6.39054 40.6599 6.45055 40.3599 5.97055C40.0699 5.51055 40.32 4.99055 40.85 4.66055C41.25 4.41055 41.63 4.33055 41.82 4.31055L41.99 4.86057L41.7799 4.99057C41.5399 4.83057 41.26 4.90056 41.07 5.01056C40.86 5.14056 40.77 5.33056 40.87 5.48056C40.96 5.63056 41.14 5.62057 41.45 5.49057C42.03 5.26057 42.49 5.19054 42.82 5.71054C43.13 6.22054 42.83 6.75056 42.32 7.07056L42.33 7.09055Z" fill="white"/>
<path d="M50.04 3.46003C49.86 3.48003 49.82 3.55004 49.84 3.69004L49.87 3.90003C49.89 4.04003 49.92 4.07004 50.02 4.06004L50 4.41004C49.61 4.49004 49.54 4.66006 48.95 4.74006C48.15 4.85006 47.42 4.55005 47.29 3.54005C47.16 2.61005 47.7 2.05004 48.58 1.94004C49.1 1.87004 49.5 2.02004 49.67 2.09004L49.6 2.72004L49.36 2.75004C49.24 2.47004 48.99 2.39003 48.71 2.43003C48.21 2.50003 47.98 2.82004 48.07 3.44004C48.15 4.07004 48.42 4.31006 48.91 4.24006C49.03 4.22006 49.17 4.17006 49.25 4.11006L49.2 3.77006C49.18 3.62006 49.14 3.57005 48.95 3.60005H48.9L48.93 3.24006L49.98 3.10005L50.1 3.45005H50.05L50.04 3.46003Z" fill="white"/>
<path d="M52.5499 2.33887C52.1199 2.30887 51.8999 2.51889 51.8499 3.19889C51.7999 3.87889 51.9799 4.12889 52.4099 4.16889C52.8499 4.20889 53.0599 3.98888 53.1099 3.30888C53.1599 2.62888 52.9899 2.37887 52.5499 2.33887ZM52.3599 4.66889C51.5299 4.59889 50.9799 4.16889 51.0699 3.13889C51.1499 2.10889 51.7699 1.76887 52.5899 1.83887C53.4299 1.90887 53.9699 2.33887 53.8899 3.36887C53.8099 4.39887 53.1999 4.73889 52.3599 4.66889Z" fill="white"/>
<path d="M56.8999 3.48923C56.9199 3.29923 56.8999 3.19921 56.6099 3.12921L56.3499 3.0592L55.8999 4.7092C55.8599 4.8592 55.8799 4.91921 56.0499 4.96921L55.8799 5.29922L54.8999 5.02921L54.9199 4.65921C55.0999 4.70921 55.1399 4.65923 55.1899 4.51923L55.6399 2.8692L55.3799 2.79922C55.0999 2.71922 55.0299 2.79921 54.9499 2.96921L54.6799 2.8392L54.9299 2.19922L57.2999 2.84921L57.1999 3.52921L56.8999 3.50922V3.48923Z" fill="white"/>
<path d="M59.7698 6.99951L58.8698 6.53952L58.9598 6.1795C59.1198 6.2595 59.1798 6.22951 59.2498 6.08951L59.5298 5.53952L58.6098 5.06952L58.3298 5.61951C58.2598 5.74951 58.2698 5.81951 58.4198 5.89951L58.1898 6.18951L57.2798 5.72952L57.3698 5.36951C57.5298 5.44951 57.5898 5.41951 57.6598 5.27951L58.3898 3.84952C58.4598 3.70952 58.4498 3.64951 58.2898 3.55951L58.5298 3.26953L59.4298 3.72952L59.3298 4.08951C59.1698 4.00951 59.1198 4.0395 59.0398 4.1795L58.8198 4.61951L59.7398 5.08951L59.9598 4.64951C60.0298 4.50951 60.0198 4.44953 59.8598 4.35953L60.0898 4.06952L60.9998 4.52951L60.8998 4.88953C60.7398 4.80953 60.6898 4.83952 60.6098 4.97952L59.8798 6.40952C59.8098 6.53952 59.8198 6.60951 59.9798 6.68951L59.7498 6.97952L59.7698 6.99951Z" fill="white"/>
<path d="M62.9899 6.56924C62.6599 6.29924 62.3499 6.34924 61.9199 6.87924C61.4899 7.40924 61.4999 7.71925 61.8199 7.98925C62.1599 8.26925 62.4599 8.20923 62.8899 7.67923C63.3199 7.14923 63.3199 6.84924 62.9799 6.56924H62.9899ZM61.4999 8.36923C60.8599 7.83923 60.6499 7.17924 61.3099 6.37924C61.9699 5.57924 62.6599 5.65923 63.2999 6.17923C63.9499 6.70923 64.1499 7.37925 63.4899 8.16925C62.8299 8.96925 62.1499 8.89925 61.4999 8.35925V8.36923Z" fill="white"/>
<path d="M65.0299 9.48917L65.2399 9.74915C65.4099 9.95915 65.5899 9.96915 65.7499 9.84915C65.8999 9.72915 65.9299 9.55914 65.7499 9.33914L65.5399 9.07916L65.0299 9.48917ZM64.6799 9.76917L64.0599 10.2692L64.3099 10.5792C64.4999 10.8092 64.7099 10.8291 64.8999 10.6791C65.0799 10.5291 65.1099 10.3092 64.9199 10.0692L64.6899 9.77914L64.6799 9.76917ZM64.0299 10.8892L63.1899 9.83914L63.4199 9.54916C63.5299 9.68916 63.5999 9.67914 63.7199 9.58914L64.9699 8.57916C65.0899 8.47916 65.1099 8.41914 64.9999 8.27914L65.3299 8.11914L66.1199 9.09915C66.5399 9.62915 66.5899 10.0792 66.2199 10.3792C66.0499 10.5192 65.7599 10.5192 65.5499 10.4192C65.6799 10.7592 65.58 11.0591 65.34 11.2491C64.94 11.5691 64.4599 11.4092 64.0399 10.8892H64.0299Z" fill="white"/>
<path d="M68.27 13.7304L67.14 14.3104C66.62 14.5704 66.08 14.3104 65.74 13.6404C65.4 12.9704 65.5 12.3704 66.02 12.1104L67.15 11.5304C67.29 11.4604 67.32 11.4004 67.24 11.2404L67.6 11.1504L68.08 12.0804L67.79 12.3104C67.71 12.1504 67.64 12.1404 67.5 12.2104L66.36 12.7904C66.13 12.9104 66.06 13.1304 66.21 13.4304C66.37 13.7404 66.6 13.8104 66.82 13.7004L67.96 13.1204C68.1 13.0504 68.13 12.9904 68.05 12.8304L68.41 12.7304L68.85 13.5804L68.56 13.8204C68.48 13.6604 68.41 13.6504 68.27 13.7204V13.7304Z" fill="white"/>
<path d="M69.2799 16.3205L69.1699 15.9205L68.4099 16.1205L68.5099 16.5005C68.5899 16.7905 68.7699 16.9005 68.9999 16.8405C69.2299 16.7805 69.3499 16.6005 69.2699 16.3105L69.2799 16.3205ZM67.3899 18.2705L67.1799 17.4805C67.4499 16.9905 68.2099 17.0905 68.0699 16.5505L67.9899 16.2305L67.4799 16.3605C67.3299 16.4005 67.2899 16.4505 67.3299 16.6205L66.9599 16.6405L66.7 15.6605L67.0299 15.4905C67.0799 15.6705 67.1399 15.6905 67.2899 15.6505L68.84 15.2405C68.99 15.2005 69.0299 15.1505 68.9899 14.9805H69.3599L69.7199 16.3105C69.8899 16.9605 69.7199 17.4105 69.2299 17.5405C68.9099 17.6305 68.6399 17.5104 68.4299 17.2104C68.4299 17.5704 68.1399 17.7305 67.9699 17.8205C67.7699 17.9205 67.6999 17.9805 67.7599 18.1805L67.7799 18.2405L67.4099 18.2605L67.3899 18.2705Z" fill="white"/>
<path d="M68.6998 21.6402C68.6998 21.4502 68.6298 21.4202 68.4798 21.4202H68.2698C68.1298 21.4402 68.0898 21.4701 68.0998 21.5601L67.7498 21.5102C67.6998 21.1202 67.5398 21.0301 67.5098 20.4301C67.4698 19.6201 67.8298 18.9201 68.8498 18.8701C69.7898 18.8201 70.2998 19.4102 70.3398 20.2902C70.3698 20.8102 70.1798 21.2001 70.0898 21.3701L69.4698 21.2501V21.0102C69.7398 20.9202 69.8498 20.6702 69.8298 20.3902C69.7998 19.8902 69.5098 19.6302 68.8798 19.6702C68.2498 19.7002 67.9798 19.9501 68.0098 20.4401C68.0098 20.5601 68.0598 20.7102 68.1098 20.7902L68.4498 20.7702C68.5998 20.7702 68.6498 20.7201 68.6398 20.5301V20.4802L68.9998 20.5402L69.0498 21.6001L68.6898 21.6901V21.6402H68.6998Z" fill="white"/>
<path d="M67.2199 24.7296L67.5399 22.6296L67.9099 22.5996C67.8799 22.7796 67.9299 22.8296 68.0799 22.8496L69.6699 23.0896C69.8199 23.1096 69.8799 23.0896 69.9099 22.9096L70.2499 23.0396L69.9399 25.0496L69.2899 24.9496V24.6596C69.4899 24.6596 69.5499 24.6096 69.5999 24.3096L69.6699 23.8396L69.0099 23.7396L68.95 24.1596C68.92 24.3396 68.9499 24.4096 69.0799 24.4296L68.9599 24.7096L68.3099 24.6096L68.2799 24.3096C68.4299 24.3296 68.4699 24.2696 68.4899 24.0896L68.5499 23.6696L67.84 23.5596L67.7399 24.2096C67.6999 24.4896 67.7699 24.5596 67.9599 24.6196L67.8599 24.9096L67.2 24.7296H67.2199Z" fill="white"/>
<path d="M68.1098 28.899L66.0698 28.129L66.2598 27.619L68.1098 27.089C68.2398 27.049 68.4598 27.029 68.4598 27.029C68.4598 27.029 68.2498 26.979 68.1598 26.939L67.2598 26.599C67.1198 26.549 67.0498 26.559 66.9898 26.729L66.6798 26.529L66.9898 25.709L67.3598 25.759C67.2998 25.929 67.3398 25.979 67.4798 26.039L68.9798 26.609C69.1298 26.669 69.1898 26.649 69.2498 26.479L69.5598 26.679L69.2798 27.419L67.5998 27.899C67.4698 27.939 67.2398 27.959 67.2398 27.959C67.2398 27.959 67.4498 28.019 67.5598 28.059L68.3298 28.349C68.4798 28.409 68.5398 28.389 68.5998 28.219L68.9098 28.419L68.5998 29.249L68.2398 29.189C68.2998 29.019 68.2698 28.969 68.1198 28.919L68.1098 28.899Z" fill="white"/>
<path d="M64.9998 29.9091C65.2898 29.4491 65.6398 29.2191 65.8198 29.1191L66.2398 29.5591L66.1098 29.7692C65.7898 29.6892 65.5298 29.8892 65.3798 30.1292C65.2598 30.3092 65.2298 30.5591 65.4198 30.6891C65.5898 30.7991 65.7498 30.7192 66.0498 30.3792C66.3598 30.0292 66.7898 29.7591 67.2598 30.0591C67.7198 30.3491 67.7198 30.9192 67.3898 31.4492C67.1398 31.8492 66.8298 32.0891 66.6698 32.1891L66.2698 31.7692L66.3998 31.5591C66.6798 31.5991 66.9098 31.4192 67.0198 31.2292C67.1498 31.0192 67.1498 30.8191 66.9998 30.7191C66.8498 30.6291 66.6998 30.7191 66.4698 30.9691C66.0498 31.4291 65.6598 31.6991 65.1498 31.3691C64.6498 31.0491 64.6798 30.4392 64.9998 29.9192V29.9091Z" fill="white"/>
<path d="M63.0498 32.5005L63.7298 31.7305L64.0498 31.9105C63.9298 32.0405 63.9498 32.1104 64.0598 32.2104L65.2598 33.2805C65.3798 33.3805 65.4398 33.3905 65.5598 33.2605L65.7798 33.5605L65.0998 34.3305L64.7798 34.1505C64.8998 34.0205 64.8898 33.9505 64.7698 33.8505L63.5698 32.7805C63.4598 32.6805 63.3898 32.6705 63.2698 32.8005L63.0498 32.5005Z" fill="white"/>
<path d="M61.3499 33.9995C61.7699 33.6595 62.1899 33.5495 62.3799 33.5195L62.6299 34.0795L62.4399 34.2395C62.1699 34.0595 61.8499 34.1595 61.6299 34.3395C61.4599 34.4795 61.3499 34.6995 61.4899 34.8795C61.6099 35.0395 61.7899 35.0095 62.1899 34.7895C62.5999 34.5595 63.0899 34.4395 63.4399 34.8795C63.7799 35.2995 63.5899 35.8495 63.1099 36.2295C62.7399 36.5195 62.3699 36.6595 62.1899 36.6995L61.9499 36.1695L62.1399 36.0195C62.3899 36.1495 62.6699 36.0495 62.8399 35.9095C63.0299 35.7595 63.0999 35.5595 62.9799 35.4195C62.8699 35.2795 62.6999 35.3195 62.3999 35.4795C61.8599 35.7795 61.3999 35.8995 61.0199 35.4295C60.6499 34.9695 60.8799 34.3895 61.3499 34.0195V33.9995Z" fill="white"/>
<path d="M46.5699 40.0289L45.2 39.6389L45.2299 39.2689L45.4099 39.3189C45.5899 39.3689 45.6499 39.3289 45.6899 39.1889L46.09 37.7989C45.99 37.8489 45.8299 37.8689 45.5499 37.8289L45.6699 37.4289C45.9699 37.4389 46.1499 37.4089 46.4599 37.1289L47.0199 37.2889L46.4199 39.3989C46.3799 39.5489 46.42 39.6089 46.59 39.6589L46.7699 39.7089L46.5999 40.0389L46.5699 40.0289Z" fill="white"/>
<path d="M49.4098 38.0588C49.1598 38.0388 48.9898 38.1188 48.9698 38.2988C48.9498 38.4788 49.0998 38.6288 49.3398 38.7588C49.5898 38.6688 49.7698 38.5488 49.7798 38.3688C49.7998 38.1988 49.6398 38.0788 49.3998 38.0588H49.4098ZM49.2998 39.1988C48.9898 39.3088 48.7698 39.4588 48.7498 39.6888C48.7298 39.8888 48.9298 40.0588 49.2198 40.0788C49.4998 40.1088 49.7298 39.9888 49.7498 39.7888C49.7698 39.5588 49.5698 39.3688 49.2998 39.1988ZM49.1798 40.4988C48.4298 40.4288 47.9698 40.0788 48.0198 39.6288C48.0598 39.2388 48.3898 39.0388 48.7598 38.9188C48.4598 38.7488 48.2098 38.5388 48.2398 38.2188C48.2798 37.8188 48.7498 37.5788 49.4498 37.6488C50.1198 37.7088 50.5498 38.0288 50.5198 38.4388C50.4898 38.7488 50.2098 38.9188 49.8898 39.0288C50.2298 39.2088 50.5198 39.4588 50.4798 39.8588C50.4398 40.3188 49.9198 40.5688 49.1898 40.4988H49.1798Z" fill="white"/>
<path d="M52.6398 38.0905C52.3098 38.1205 52.1398 38.3605 52.1698 38.6905C52.1998 39.0005 52.3898 39.2005 52.6998 39.1705C52.9898 39.1405 53.2398 38.9405 53.1998 38.5805C53.1798 38.3405 53.0198 38.0605 52.6298 38.0905H52.6398ZM52.6298 40.5105C52.4498 40.5305 52.0998 40.5005 51.9798 40.4305L51.9398 40.0405C52.0698 40.0805 52.2698 40.0905 52.4398 40.0805C52.9298 40.0305 53.2098 39.7905 53.2698 39.3005C53.1798 39.4505 52.9298 39.5905 52.6598 39.6105C51.9898 39.6705 51.5698 39.3205 51.5198 38.7605C51.4598 38.1905 51.8798 37.7405 52.5998 37.6705C53.4398 37.5905 53.8798 38.0905 53.9498 38.8205C54.0298 39.6805 53.6598 40.4205 52.6398 40.5205L52.6298 40.5105Z" fill="white"/>
<path d="M56.9398 39.6391L55.5698 39.9991L55.3998 39.6691L55.5798 39.619C55.7598 39.569 55.7898 39.5091 55.7498 39.3591L55.3798 37.959C55.3198 38.049 55.1898 38.1591 54.9298 38.2591L54.8198 37.8491C55.0798 37.7091 55.2198 37.5891 55.3398 37.1891L55.8998 37.0391L56.4598 39.1591C56.4998 39.3091 56.5598 39.3391 56.7398 39.2991L56.9198 39.2491L56.9398 39.619V39.6391Z" fill="white"/>
<path d="M1.31 57.2294C1.31 56.7394 1.32001 56.4394 1.32001 55.1594C1.32001 54.1394 1.31001 53.3294 1.29001 52.1594L1.24001 52.1094L0 52.0494V51.6094H3.69V52.0494L2.64 52.1094L2.59001 52.1594C2.58001 53.1294 2.56 55.2194 2.56 57.1694C2.56 58.7994 2.94001 59.8994 4.65001 59.8994C6.36001 59.8994 6.96001 58.8494 6.96001 56.9294C6.96001 55.2494 6.93 53.4294 6.91 52.1594L6.86 52.1094L5.67 52.0494V51.6094H9.09001V52.0494L7.82001 52.1094L7.77 52.1594C7.73 53.5394 7.73001 55.4394 7.74001 57.0394C7.75001 59.2594 6.71001 60.4494 4.54001 60.4494C2.37001 60.4494 1.29001 59.3494 1.29001 57.2194L1.31 57.2294Z" fill="white"/>
<path d="M10.21 59.8892L11.48 59.8292L11.53 59.7791C11.57 58.3991 11.57 57.3792 11.57 56.0792C11.57 54.7792 11.57 54.0792 11.53 52.1692L11.48 52.1191L10.21 52.0591V51.6191H12.68C14.26 53.8291 16.05 56.4092 17.34 58.2592H17.37C17.34 55.7792 17.32 53.4391 17.29 52.1791L17.24 52.1292L16.05 52.0692V51.6292H19.47V52.0692L18.2 52.1292L18.15 52.1791C18.11 53.5591 18.11 54.5792 18.11 57.8292V60.4091H17.48C15.88 58.1391 13.97 55.4592 12.34 53.1392H12.31C12.32 56.1592 12.36 58.4992 12.39 59.7892L12.44 59.8391L13.63 59.8991V60.3391H10.21V59.8991V59.8892Z" fill="white"/>
<path d="M20.5698 59.8892L21.8398 59.8292L21.8898 59.7791C21.9198 59.3791 21.9298 57.6392 21.9298 55.8892C21.9298 54.1392 21.9198 52.6092 21.8898 52.1692L21.8398 52.1191L20.5698 52.0591V51.6191H24.4998V52.0591L23.2498 52.1191L23.1998 52.1692C23.1698 52.5192 23.1598 54.3091 23.1598 56.0591C23.1598 57.8091 23.1898 59.3391 23.1998 59.7791L23.2498 59.8292L24.4998 59.8892V60.3292H20.5698V59.8892Z" fill="white"/>
<path d="M26.1799 52.0894L25.3999 52.0494V51.6094H28.7899V52.0494L27.6399 52.0994L27.5899 52.1494C28.3099 54.0194 29.1699 56.2794 30.0199 58.4694H30.0499C30.6799 56.7094 31.7799 53.5894 32.2099 52.1394L32.1699 52.0994L31.1199 52.0494V51.6094H33.9799V52.0494L33.2299 52.0894C32.5599 53.7894 31.0099 57.8094 29.9899 60.4594H29.6399C28.3099 57.2294 27.1599 54.4194 26.1899 52.0894H26.1799Z" fill="white"/>
<path d="M34.8699 59.8904L36.1399 59.8304L36.1899 59.7804C36.1999 59.1804 36.2299 57.6404 36.2299 55.8904C36.2299 54.1404 36.1999 52.6804 36.1899 52.1704L36.1399 52.1204L34.8699 52.0604V51.6204H40.5399L41.0399 51.4004H41.2299L41.3199 54.2304H41.0599C40.5999 52.9304 40.1799 52.2804 39.9599 52.2704L37.5199 52.1404L37.4799 52.2004C37.4699 52.7904 37.4399 54.1604 37.4399 55.6104C38.0199 55.6104 39.2899 55.5704 39.6199 55.5504L39.6699 55.5004L40.1299 54.6004H40.3799C40.3699 54.9604 40.3499 55.5204 40.3499 55.8704C40.3499 56.2204 40.3599 56.9304 40.3799 57.3204H40.1299L39.6699 56.2504L39.6199 56.2004C39.2199 56.1904 38.0699 56.1604 37.4399 56.1604C37.4399 57.8004 37.4699 59.1204 37.4799 59.7804L37.5199 59.8504L40.1599 59.7104C40.3799 59.7004 40.9599 59.1704 41.4299 57.6404H41.7299C41.5599 60.1604 41.5199 60.3704 41.2999 60.3704H34.8699V59.9304V59.8904Z" fill="white"/>
<path d="M48.76 53.8599C48.76 53.1499 48.45 52.6199 47.87 52.3499C47.55 52.1999 47.15 52.1099 46.33 52.1099H45.9L45.86 52.1498C45.85 52.7098 45.83 54.3999 45.82 55.9099C48.07 55.8499 48.75 55.1198 48.75 53.8698L48.76 53.8599ZM43.22 59.8899L44.51 59.8299L44.56 59.7798C44.57 59.3998 44.6 57.6399 44.6 55.8899C44.6 54.1399 44.57 52.7499 44.56 52.1699L44.51 52.1198L43.22 52.0598V51.6198C44.38 51.6198 45.62 51.5898 46.28 51.5898C47.3 51.5898 47.9 51.6499 48.37 51.7999C49.61 52.1699 50.15 52.9799 50.15 53.8499C50.15 55.1299 49.28 55.7299 48.23 56.0699V56.0999C48.57 56.4899 49.15 57.5499 49.9 58.8599C50.22 59.4299 50.53 59.8499 50.96 59.8799H51.24V60.3299H49.3L49.25 60.2798C48.77 59.3098 48.44 58.5199 47.62 57.0699C47.45 56.7699 47.3 56.5298 47.1 56.3098C46.64 56.3698 46.2 56.3998 45.82 56.3998C45.81 57.9398 45.85 59.3799 45.86 59.7699L45.91 59.8199L47.1 59.8799V60.3199H43.21V59.8799L43.22 59.8899Z" fill="white"/>
<path d="M52.8599 57.6104H53.1599C53.6099 59.2504 54.3499 59.9404 55.2499 59.9404C56.3099 59.9404 56.9799 59.2304 56.9799 58.3004C56.9799 56.0504 53.0099 56.6204 53.0099 53.7804C53.0099 52.5804 53.9499 51.4804 55.5899 51.4804C56.4299 51.4804 57.0999 51.7404 57.2399 51.7804L57.6299 51.4004H57.8799L57.9599 54.2304H57.6899C57.1499 52.6604 56.4399 52.0104 55.5599 52.0104C54.7999 52.0104 54.1399 52.5104 54.1399 53.3704C54.1399 55.5304 58.1699 55.1904 58.1699 57.9204C58.1699 59.2204 57.1899 60.4804 55.1699 60.4804C54.6099 60.4804 53.9599 60.3504 53.3899 59.9804L53.1299 60.4804H52.8599V57.6204V57.6104Z" fill="white"/>
<path d="M59.8499 59.8892L61.1199 59.8292L61.1698 59.7791C61.1998 59.3791 61.2099 57.6392 61.2099 55.8892C61.2099 54.1392 61.1998 52.6092 61.1698 52.1692L61.1199 52.1191L59.8499 52.0591V51.6191H63.7798V52.0591L62.5298 52.1191L62.4799 52.1692C62.4499 52.5192 62.4398 54.3091 62.4398 56.0591C62.4398 57.8091 62.4699 59.3391 62.4799 59.7791L62.5298 59.8292L63.7798 59.8892V60.3292H59.8499V59.8892Z" fill="white"/>
<path d="M66.6499 59.8904L68.0299 59.8304L68.0799 59.7804C68.0899 59.3004 68.1199 57.6404 68.1199 55.8904C68.1199 54.1404 68.1199 52.7104 68.0799 52.2604L68.0399 52.2004H66.4999C66.2299 52.2004 65.9099 52.6604 65.3799 54.2304H65.1199L65.2199 51.4004H65.4499L65.8299 51.6204H71.6299L72.0099 51.4004H72.2399L72.3399 54.2304H72.0799C71.5399 52.6604 71.2299 52.2004 70.9599 52.2004H69.4199L69.3799 52.2604C69.3699 52.5704 69.3399 54.3104 69.3399 56.0604C69.3399 57.8104 69.3699 59.3104 69.3799 59.7804L69.4299 59.8304L70.8499 59.8904V60.3304H66.6399V59.8904H66.6499Z" fill="white"/>
<path d="M75.8398 59.8894L77.1198 59.8294L77.1698 59.7794C77.1998 58.8094 77.2098 58.2194 77.2098 56.4494C76.1398 54.8194 74.9598 52.9494 74.3798 52.0994L73.5098 52.0594V51.6194H76.7998V52.0594L75.8698 52.1094L75.8198 52.1594C76.4498 53.2194 77.3398 54.6994 78.0298 55.7594H78.0598C78.7698 54.5094 79.5998 52.9794 80.0098 52.1394L79.9698 52.0994L79.0698 52.0494V51.6094H81.8598V52.0494L81.0698 52.0894C80.3198 53.1894 79.3398 54.9194 78.4398 56.3994C78.4398 58.1794 78.4698 58.6094 78.4798 59.7694L78.5298 59.8194L79.8498 59.8794V60.3194H75.8498V59.8794L75.8398 59.8894Z" fill="white"/>
<path d="M92.67 55.9688C92.67 53.3588 91.6499 52.0587 90.0099 52.0587C88.3699 52.0587 87.3199 53.3588 87.3199 55.9688C87.3199 58.5787 88.3399 59.8888 89.9799 59.8888C91.6199 59.8888 92.67 58.5887 92.67 55.9688ZM85.9299 56.0988C85.9299 53.1688 87.7299 51.4688 90.0099 51.4688C92.5799 51.4688 94.0699 53.2787 94.0699 55.8387C94.0699 58.7687 92.2699 60.4587 89.9899 60.4587C87.4199 60.4587 85.9299 58.6487 85.9299 56.0887V56.0988Z" fill="white"/>
<path d="M95.5598 59.8887L96.8298 59.8087L96.8798 59.7587C96.8898 59.3087 96.9198 57.6287 96.9198 55.8787C96.9198 54.1287 96.8898 52.6087 96.8798 52.1587L96.8298 52.1087L95.5598 52.0487V51.6087H101.26L101.76 51.3887H101.95L102.04 54.2187H101.78C101.32 52.9187 100.9 52.2587 100.68 52.2487L98.2098 52.1287L98.1698 52.1887C98.1598 52.5687 98.1298 54.1487 98.1298 55.5987C98.7098 55.5987 99.9798 55.5587 100.29 55.5387L100.34 55.4887L100.8 54.5887H101.05C101.04 54.9487 101.02 55.5087 101.02 55.8587C101.02 56.2087 101.03 57.0087 101.05 57.3987H100.8L100.31 56.2387L100.26 56.1887C99.8798 56.1787 98.7598 56.1487 98.1298 56.1487C98.1298 57.7887 98.1298 59.2487 98.1698 59.7787L98.2198 59.8287L99.6198 59.9087V60.3487H95.5498V59.9087L95.5598 59.8887Z" fill="white"/>
<path d="M4.20996 71.4704C4.20996 68.6404 6.11995 66.9804 8.63995 66.9804C9.59995 66.9804 10.15 67.1304 10.64 67.2804L11.07 66.9004H11.26L11.35 69.7304H11.08C10.43 68.0004 9.51995 67.5104 8.55995 67.5104C7.05995 67.5104 5.59996 68.6304 5.59996 71.3504C5.59996 73.4704 6.65995 75.3904 8.85995 75.3904C9.48995 75.3904 10.18 75.2104 10.18 75.0004C10.18 74.5604 10.19 73.3804 10.15 72.3904L10.1 72.3404L8.82996 72.2704V71.8304H12.45V72.2704L11.52 72.3404L11.47 72.3904C11.44 73.2204 11.43 74.1504 11.44 75.1404C11.28 75.4604 10.04 75.9704 8.73996 75.9704C6.09996 75.9704 4.20996 74.3304 4.20996 71.4704Z" fill="white"/>
<path d="M20.8098 71.4705C20.8098 68.8605 19.7898 67.5605 18.1498 67.5605C16.5098 67.5605 15.4598 68.8605 15.4598 71.4705C15.4598 74.0805 16.4798 75.3905 18.1198 75.3905C19.7598 75.3905 20.8098 74.0905 20.8098 71.4705ZM14.0698 71.6005C14.0698 68.6705 15.8698 66.9805 18.1498 66.9805C20.7198 66.9805 22.2098 68.7905 22.2098 71.3505C22.2098 74.2805 20.4098 75.9805 18.1298 75.9805C15.5598 75.9805 14.0698 74.1705 14.0698 71.6105V71.6005Z" fill="white"/>
<path d="M25.4799 75.4001L26.8599 75.3401L26.9099 75.2902C26.9199 74.8102 26.95 73.1501 26.95 71.4001C26.95 69.6501 26.9499 68.2202 26.9099 67.7702L26.8699 67.7101H25.3299C25.0599 67.7101 24.7399 68.1702 24.2099 69.7402H23.95L24.0499 66.9102H24.2799L24.6599 67.1302H30.4599L30.84 66.9102H31.0699L31.1699 69.7402H30.9099C30.3699 68.1702 30.0599 67.7101 29.7899 67.7101H28.2499L28.2099 67.7702C28.1999 68.0802 28.1699 69.8202 28.1699 71.5702C28.1699 73.3202 28.1999 74.8302 28.2099 75.2902L28.2599 75.3401L29.6799 75.4001V75.8401H25.4699V75.4001H25.4799Z" fill="white"/>
<path d="M32.5298 75.3989L33.7998 75.3389L33.8498 75.2889C33.8598 74.7989 33.8898 73.1489 33.8898 71.3989C33.8898 69.6489 33.8598 68.0789 33.8498 67.6789L33.7998 67.6289L32.5298 67.5689V67.1289H36.2798V67.5689L35.2098 67.6289L35.1598 67.6789C35.1298 68.0789 35.1198 69.5989 35.1198 71.0489H39.3998C39.4098 69.4489 39.3698 67.9789 39.3598 67.6789L39.3098 67.6289L38.2398 67.5689V67.1289H41.9898V67.5689L40.7198 67.6289L40.6698 67.6789C40.6598 68.0689 40.6298 69.8189 40.6298 71.5689C40.6298 73.3189 40.6598 74.7189 40.6698 75.2889L40.7198 75.3389L41.9898 75.3989V75.8389H38.2398V75.3989L39.3098 75.3389L39.3598 75.2889C39.3698 74.8489 39.3998 73.2489 39.3998 71.7189H35.1198C35.1198 73.3589 35.1298 74.5489 35.1598 75.2889L35.2098 75.3389L36.2798 75.3989V75.8389H32.5298V75.3989Z" fill="white"/>
<path d="M43.0798 75.4001L44.3498 75.3401L44.3998 75.2902C44.4098 74.6902 44.4398 73.1501 44.4398 71.4001C44.4398 69.6501 44.4098 68.1901 44.3998 67.6801L44.3498 67.6302L43.0798 67.5702V67.1302H48.7498L49.2498 66.9102H49.4398L49.5298 69.7402H49.2698C48.8098 68.4402 48.3898 67.7902 48.1698 67.7802L45.7298 67.6501L45.6898 67.7101C45.6798 68.3001 45.6498 69.6701 45.6498 71.1201C46.2298 71.1201 47.4998 71.0802 47.8298 71.0602L47.8798 71.0102L48.3398 70.1102H48.5898C48.5798 70.4702 48.5598 71.0302 48.5598 71.3802C48.5598 71.7302 48.5698 72.4402 48.5898 72.8302H48.3398L47.8798 71.7602L47.8298 71.7101C47.4298 71.7001 46.2798 71.6702 45.6498 71.6702C45.6498 73.3102 45.6798 74.6302 45.6898 75.2902L45.7298 75.3602L48.3698 75.2202C48.5898 75.2102 49.1698 74.6801 49.6398 73.1501H49.9398C49.7698 75.6701 49.7298 75.8802 49.5098 75.8802H43.0798V75.4402V75.4001Z" fill="white"/>
<path d="M51.4199 75.3989L52.6899 75.3389L52.7399 75.2889C52.7799 73.9089 52.7799 72.8889 52.7799 71.5889C52.7799 70.2889 52.7799 69.5889 52.7399 67.6789L52.6899 67.6289L51.4199 67.5689V67.1289H53.8899C55.4699 69.3389 57.2599 71.9189 58.5499 73.7689H58.5799C58.5499 71.2889 58.5299 68.9489 58.4999 67.6889L58.4499 67.6389L57.2599 67.5789V67.1389H60.6799V67.5789L59.4099 67.6389L59.3599 67.6889C59.3199 69.0689 59.3199 70.0889 59.3199 73.3289V75.9089H58.6899C57.0899 73.6389 55.1799 70.9589 53.5499 68.6389H53.5199C53.5299 71.6589 53.5699 73.9989 53.5999 75.2889L53.6499 75.3389L54.8399 75.3989V75.8389H51.4199V75.3989Z" fill="white"/>
<path d="M67.6998 73.3596C67.6998 72.1296 66.8598 71.6496 65.7198 71.6496H64.3598C64.3498 73.2896 64.3898 74.5996 64.3998 75.2796L64.4598 75.3296C64.7098 75.3396 64.9398 75.3396 65.0898 75.3396C66.8298 75.3396 67.6898 74.6196 67.6898 73.3496L67.6998 73.3596ZM65.1798 71.0796C66.6998 71.0796 67.0898 70.3596 67.0898 69.3596C67.0898 68.6796 66.8398 68.1596 66.3098 67.8896C65.9698 67.7096 65.4998 67.6096 64.7898 67.6096C64.7198 67.6096 64.5798 67.6096 64.4498 67.6196L64.3998 67.6796C64.3898 68.3496 64.3498 69.6196 64.3598 71.0796H65.1698H65.1798ZM61.7798 75.3996L63.0498 75.3396L63.0998 75.2896C63.1098 74.8396 63.1398 73.1496 63.1398 71.3996C63.1398 69.6496 63.1098 68.2496 63.0998 67.6796L63.0498 67.6296L61.7798 67.5696V67.1296C62.7398 67.1296 63.8298 67.0996 64.5998 67.0996C65.5398 67.0996 66.2698 67.1796 66.8498 67.3596C67.8698 67.6796 68.4898 68.3396 68.4898 69.2796C68.4898 70.3896 67.7498 71.0496 66.9098 71.2596V71.2896C68.2798 71.3496 69.0898 72.1596 69.0898 73.1996C69.0898 74.9596 67.5098 75.8696 65.0098 75.8696C64.1698 75.8696 62.8098 75.8396 61.7798 75.8396V75.3996Z" fill="white"/>
<path d="M71.8898 72.7392C71.8898 72.2492 71.8998 71.9492 71.8998 70.6692C71.8998 69.6492 71.8898 68.8392 71.8698 67.6692L71.8198 67.6191L70.5798 67.5591V67.1191H74.2798V67.5591L73.2298 67.6191L73.1798 67.6692C73.1698 68.6392 73.1498 70.7291 73.1498 72.6791C73.1498 74.3091 73.5298 75.4091 75.2398 75.4091C76.9498 75.4091 77.5498 74.3591 77.5498 72.4391C77.5498 70.7591 77.5198 68.9392 77.4998 67.6692L77.4498 67.6191L76.2598 67.5591V67.1191H79.6798V67.5591L78.4098 67.6191L78.3598 67.6692C78.3198 69.0492 78.3198 70.9492 78.3298 72.5492C78.3398 74.7692 77.2998 75.9591 75.1298 75.9591C72.9598 75.9591 71.8698 74.8592 71.8698 72.7292L71.8898 72.7392Z" fill="white"/>
<path d="M86.33 69.3596C86.33 68.6496 86.02 68.1196 85.44 67.8496C85.12 67.6896 84.72 67.5996 83.9 67.5996H83.47L83.43 67.6396C83.42 68.1896 83.4 69.8896 83.39 71.3996C85.64 71.3396 86.32 70.6096 86.32 69.3596H86.33ZM80.79 75.3996L82.08 75.3396L82.13 75.2896C82.14 74.9096 82.17 73.1496 82.17 71.3996C82.17 69.6496 82.14 68.2596 82.13 67.6796L82.08 67.6296L80.79 67.5696V67.1296C81.95 67.1296 83.19 67.0996 83.85 67.0996C84.87 67.0996 85.46 67.1596 85.94 67.3096C87.18 67.6896 87.72 68.4896 87.72 69.3596C87.72 70.6396 86.85 71.2396 85.79 71.5796V71.6096C86.13 71.9996 86.71 73.0596 87.46 74.3696C87.78 74.9396 88.09 75.3596 88.52 75.3896H88.8V75.8396H86.86L86.81 75.7896C86.33 74.8196 86 74.0296 85.18 72.5796C85.01 72.2796 84.86 72.0396 84.66 71.8196C84.2 71.8796 83.76 71.9096 83.38 71.9096C83.37 73.4496 83.41 74.8896 83.42 75.2796L83.47 75.3296L84.66 75.3896V75.8296H80.77V75.3896L80.79 75.3996Z" fill="white"/>
<path d="M90.0999 71.4704C90.0999 68.6404 92.0098 66.9804 94.5298 66.9804C95.4898 66.9804 96.0398 67.1304 96.5298 67.2804L96.9598 66.9004H97.1498L97.2398 69.7304H96.9698C96.3198 68.0004 95.4099 67.5104 94.4499 67.5104C92.9499 67.5104 91.4898 68.6304 91.4898 71.3504C91.4898 73.4704 92.5498 75.3904 94.7498 75.3904C95.3798 75.3904 96.0699 75.2104 96.0699 75.0004C96.0699 74.5604 96.0799 73.3804 96.0399 72.3904L95.9898 72.3404L94.7198 72.2704V71.8304H98.3398V72.2704L97.4099 72.3404L97.3599 72.3904C97.3299 73.2204 97.3199 74.1504 97.3299 75.1404C97.1699 75.4604 95.9299 75.9704 94.6299 75.9704C91.9899 75.9704 90.0898 74.3304 90.0898 71.4704H90.0999Z" fill="white"/>
</svg>
