<svg width="266" height="126" viewBox="0 0 266 126" fill="none" xmlns="http://www.w3.org/2000/svg">
<path d="M200.418 74.7471L149.716 125.228V50.7023L200.418 0V74.7471Z" fill="#461D5F"/>
<path d="M149.715 50.7023L200.418 0H125.671L75.1455 50.7023H149.715Z" fill="#7854BD"/>
<path d="M265.733 0L215.252 50.5251V0H265.733Z" fill="#7854BD"/>
<path d="M17.2255 93.9208C14.8786 94.8064 13.4173 95.0278 11.4246 95.0278C6.90791 95.0278 3.63108 91.5739 3.63108 86.3487C3.63108 80.7249 3.63108 80.7249 3.63108 80.7249C4.22301e-07 80.7249 0 80.7249 0 80.7249C0 75.1012 0 75.1012 0 75.1012C3.63108 75.1012 3.63108 75.1012 3.63108 75.1012C3.63108 68.5918 3.63108 68.5918 3.63108 68.5918C10.1405 68.5918 10.1405 68.5918 10.1405 68.5918C10.1405 75.1012 10.1405 75.1012 10.1405 75.1012C16.6498 75.1012 16.6498 75.1012 16.6498 75.1012C16.6498 80.7249 16.6498 80.7249 16.6498 80.7249C10.1405 80.7249 10.1405 80.7249 10.1405 80.7249C10.1405 86.1715 10.1405 86.1715 10.1405 86.1715C10.1405 88.1642 11.2475 89.0498 13.1959 89.0498C14.0815 89.0498 15.1885 88.8727 16.4727 88.5185L17.2255 93.9208Z" fill="white"/>
<path d="M26.8348 94.2747C20.5026 94.2747 20.5026 94.2747 20.5026 94.2747C20.5026 88.4738 20.5026 88.4738 20.5026 88.4738C20.5026 80.5031 20.5026 80.5031 20.5026 80.5031C20.5026 75.0565 20.5026 75.0565 20.5026 75.0565C26.8348 75.0565 26.8348 75.0565 26.8348 75.0565C26.8348 80.5031 26.8348 80.5031 26.8348 80.5031C26.8348 88.2967 26.8348 88.2967 26.8348 88.2967V94.2747ZM19.9712 68.4143C19.9712 66.4216 21.6096 64.7832 23.6023 64.7832C25.7721 64.7832 27.4105 66.4216 27.4105 68.4143C27.4105 70.5841 25.7721 72.0454 23.6023 72.0454C21.5653 72.0454 19.9712 70.5841 19.9712 68.4143Z" fill="white"/>
<path d="M84.0017 68.4149C84.0017 66.5993 85.6401 64.9609 87.8099 64.9609C89.8025 64.9609 91.4409 66.5993 91.4409 68.4149C91.4409 70.4076 89.8025 72.046 87.8099 72.046C85.6401 72.046 84.0017 70.4076 84.0017 68.4149ZM86.57 87.7659C86.57 81.7879 86.57 81.7879 86.57 81.7879C85.2858 80.3266 83.8688 79.9723 82.4075 79.9723C79.8835 79.9723 77.8908 81.965 77.8908 84.6662C77.8908 87.3674 79.8835 89.36 82.4075 89.36C83.8245 89.4043 85.2858 89.05 86.57 87.7659ZM74.9682 68.4149C74.9682 66.5993 76.6067 64.9609 78.5993 64.9609C80.592 64.9609 82.2304 66.5993 82.2304 68.4149C82.2304 70.4076 80.592 72.046 78.5993 72.046C76.6067 72.046 74.9682 70.4076 74.9682 68.4149ZM92.9022 94.2753C86.57 94.2753 86.57 94.2753 86.57 94.2753C86.57 93.1682 86.57 93.1682 86.57 93.1682C85.1087 94.0538 83.2931 94.8066 81.1234 94.8066C76.0753 94.8066 71.6914 90.4671 71.6914 84.6662C71.6914 78.8653 76.031 74.7029 81.1234 74.7029C83.2931 74.7029 85.1087 75.2342 86.57 76.1641C86.57 75.0571 86.57 75.0571 86.57 75.0571C92.9022 75.0571 92.9022 75.0571 92.9022 75.0571V94.2753Z" fill="white"/>
<path d="M116.77 94.2754H109.729L105.921 88.8731L102.113 94.2754H95.0723L101.759 84.7106L95.0723 75.1016H102.29L105.921 80.1939L109.552 75.1016H116.77L110.084 84.7106L116.77 94.2754Z" fill="white"/>
<path d="M135.413 93.9208C132.889 94.8064 131.428 95.0278 129.612 95.0278C124.918 95.0278 121.818 91.5739 121.818 86.3487C121.818 80.7249 121.818 80.7249 121.818 80.7249C118.01 80.7249 118.01 80.7249 118.01 80.7249C118.01 75.1012 118.01 75.1012 118.01 75.1012C121.818 75.1012 121.818 75.1012 121.818 75.1012C121.818 68.5918 121.818 68.5918 121.818 68.5918C128.151 68.5918 128.151 68.5918 128.151 68.5918C128.151 75.1012 128.151 75.1012 128.151 75.1012C134.837 75.1012 134.837 75.1012 134.837 75.1012C134.837 80.7249 134.837 80.7249 134.837 80.7249C128.151 80.7249 128.151 80.7249 128.151 80.7249C128.151 86.1715 128.151 86.1715 128.151 86.1715C128.151 88.1642 129.435 89.0498 131.25 89.0498C132.136 89.0498 133.243 88.8727 134.704 88.5185L135.413 93.9208Z" fill="white"/>
<path d="M27.897 124.697H21.7419L13.417 105.523H20.1478L24.8416 116.727L29.3583 105.523H36.2219L27.897 124.697Z" fill="white"/>
<path d="M42.5544 113.272C50.525 113.272 50.525 113.272 50.525 113.272C50.1708 111.102 48.7095 109.995 46.5397 109.995C44.3699 110.04 43.13 111.279 42.5544 113.272ZM56.3259 116.903C56.3259 117.08 56.3259 117.08 56.3259 117.08C42.7315 117.08 42.7315 117.08 42.7315 117.08C43.0858 118.719 44.5471 120.136 46.894 120.136C48.3553 120.136 49.418 119.604 49.9494 118.674C56.2816 118.674 56.2816 118.674 56.2816 118.674C55.396 122.66 51.5878 125.184 46.8497 125.184C40.5174 125.184 36.355 121.021 36.355 115.043C36.355 109.243 40.5174 105.08 46.4954 105.08C52.1192 105.08 56.4588 108.888 56.4588 114.689C56.503 115.442 56.503 116.195 56.3259 116.903Z" fill="white"/>
<path d="M72.7985 111.28C69.6988 111.457 67.7504 112.166 66.2892 113.804C66.2892 124.653 66.2892 124.653 66.2892 124.653C59.7798 124.653 59.7798 124.653 59.7798 124.653C59.7798 105.479 59.7798 105.479 59.7798 105.479C66.2892 105.479 66.2892 105.479 66.2892 105.479C66.2892 107.649 66.2892 107.649 66.2892 107.649C67.9276 106.011 69.9202 105.125 72.7985 105.125V111.28Z" fill="white"/>
<path d="M81.6549 121.065V124.696H75.1455V96.666H81.6549V112.74L88.3857 105.522H95.9578L88.7399 113.493L96.7106 124.696H88.917L84.4003 118.187L81.6549 121.065Z" fill="white"/>
<path d="M102.644 113.272C110.615 113.272 110.615 113.272 110.615 113.272C110.261 111.102 108.8 109.995 106.807 109.995C104.637 110.04 103.22 111.279 102.644 113.272ZM116.416 116.903C116.593 117.08 116.593 117.08 116.593 117.08C102.822 117.08 102.822 117.08 102.822 117.08C103.353 118.719 104.637 120.136 107.161 120.136C108.445 120.136 109.508 119.604 110.039 118.674C116.372 118.674 116.372 118.674 116.372 118.674C115.486 122.66 111.855 125.184 106.984 125.184C100.652 125.184 96.4893 121.021 96.4893 115.043C96.4893 109.243 100.652 105.08 106.807 105.08C112.431 105.08 116.593 108.888 116.593 114.689C116.593 115.442 116.593 116.195 116.416 116.903Z" fill="white"/>
<path d="M135.413 124.519C132.889 125.228 131.428 125.405 129.612 125.405C124.918 125.405 121.818 121.951 121.818 116.726C121.818 111.102 121.818 111.102 121.818 111.102C118.01 111.102 118.01 111.102 118.01 111.102C118.01 105.478 118.01 105.478 118.01 105.478C121.818 105.478 121.818 105.478 121.818 105.478C121.818 98.9688 121.818 98.9688 121.818 98.9688C128.151 98.9688 128.151 98.9688 128.151 98.9688C128.151 105.478 128.151 105.478 128.151 105.478C134.837 105.478 134.837 105.478 134.837 105.478C134.837 111.102 134.837 111.102 134.837 111.102C128.151 111.102 128.151 111.102 128.151 111.102C128.151 116.548 128.151 116.548 128.151 116.548C128.151 118.541 129.435 119.427 131.25 119.427C132.136 119.427 133.243 119.25 134.704 118.895L135.413 124.519Z" fill="white"/>
<path d="M63.7652 94.2754H57.6101L49.2852 75.1016H56.1488L60.6655 86.1719L65.1822 75.1016H72.0901L63.7652 94.2754Z" fill="white"/>
<path d="M37.3293 94.2743H30.9971V88.5177V72.045V66.2441H37.3293V72.045V88.5177V94.2743Z" fill="white"/>
<path d="M47.4695 94.2743H41.1372V88.5177V72.045V66.2441H47.4695V72.045V88.5177V94.2743Z" fill="white"/>
</svg>
