<svg width="407" height="73" viewBox="0 0 407 73" fill="none" xmlns="http://www.w3.org/2000/svg">
<g clip-path="url(#clip0_2317_804)">
<path d="M91.0723 54.6699C91.0723 47.1575 94.5899 43.8184 99.5981 43.8184C103.981 43.8184 107.2 46.1436 107.558 51.1524H103.921C103.623 48.3499 102.043 47.0681 99.5981 47.0681C96.6466 47.0681 94.7387 49.0356 94.7387 54.7295C94.7387 60.6027 96.5277 62.3913 99.747 62.3913C102.311 62.3913 103.921 61.02 104.04 57.8303H99.4792V54.7H107.498V65.1043H104.04V60.7517C103.474 63.9115 101.327 65.4917 98.5847 65.4917C94.1126 65.4915 91.0723 62.3317 91.0723 54.6699Z" fill="white"/>
<path d="M111.36 54.6712C111.36 47.3377 114.818 43.8196 120.095 43.8196C125.342 43.8196 128.8 47.3377 128.8 54.6712C128.8 62.0047 125.342 65.4928 120.095 65.4928C114.818 65.4928 111.36 62.0047 111.36 54.6712ZM120.095 62.3625C123.165 62.3625 125.133 60.3951 125.133 54.7307C125.133 49.0367 123.165 47.0693 120.095 47.0693C117.024 47.0693 115.027 49.0367 115.027 54.7307C115.027 60.3951 117.024 62.3625 120.095 62.3625ZM117.114 38.9902C118.187 38.9902 119.052 39.8248 119.052 40.8982C119.052 41.9416 118.187 42.8061 117.114 42.8061C116.011 42.8061 115.146 41.9416 115.146 40.8982C115.146 39.8248 116.011 38.9902 117.114 38.9902ZM123.076 38.9902C124.149 38.9902 125.014 39.8248 125.014 40.8982C125.014 41.9416 124.149 42.8061 123.076 42.8061C121.973 42.8061 121.109 41.9416 121.109 40.8982C121.109 39.8248 121.973 38.9902 123.076 38.9902Z" fill="white"/>
<path d="M136.102 47.4541H130.944V44.2344H144.777V47.4541H139.62V65.103H136.102L136.102 47.4541Z" fill="white"/>
<path d="M158.161 59.2935H150.797L149.217 65.1069H145.67L151.513 44.2383H157.535L163.378 65.1069H159.741L158.161 59.2935ZM157.296 56.1633L154.494 45.8184L151.662 56.1633H157.296Z" fill="white"/>
<path d="M167.013 44.2344H170.531V61.9133H178.521V65.103H167.013V44.2344Z" fill="white"/>
<path d="M193.753 59.2935H186.39L184.81 65.1069H181.262L187.106 44.2383H193.127L198.971 65.1069H195.334L193.753 59.2935ZM192.889 56.1633L190.086 45.8184L187.254 56.1633H192.889Z" fill="white"/>
<path d="M206.004 46.2918V65.103H202.665V44.2344H208.568L215.633 62.4794V44.2344H218.972V65.103H213.338L206.004 46.2918Z" fill="white"/>
<path d="M224.455 44.2344H231.67C236.976 44.2344 240.524 47.3647 240.524 54.6687C240.524 61.7938 236.648 65.103 231.461 65.103H224.455L224.455 44.2344ZM231.282 62.0322C234.8 62.0322 236.857 60.1242 236.857 54.7282C236.857 49.3921 234.89 47.4541 231.431 47.4541H227.973V62.0322H231.282Z" fill="white"/>
<path d="M243.831 59.3504H247.438C247.736 61.3179 249.137 62.5107 251.731 62.5107C254.116 62.5107 255.428 61.1989 255.428 59.6188C255.428 57.9792 254.563 57.2336 252.327 56.6374L249.078 55.7434C246.425 54.9978 244.189 53.4477 244.189 50.049C244.189 46.5614 246.872 43.8184 251.313 43.8184C255.756 43.8184 258.499 46.3525 258.796 50.3473H255.219C254.98 48.171 253.639 46.9187 251.254 46.9187C248.899 46.9187 247.796 48.3199 247.796 49.8106C247.796 51.5097 248.839 52.2853 251.224 52.8515L254.026 53.5671C257.246 54.3716 259.035 56.1607 259.035 59.231C259.035 62.7491 256.203 65.4916 251.671 65.4916C247.14 65.4916 244.099 63.2558 243.831 59.3504Z" fill="white"/>
<path d="M263.654 44.2344H271.345C275.399 44.2344 277.725 46.4407 277.725 50.3161C277.725 53.7447 275.757 55.9505 272.18 56.1893L277.725 65.103H273.909L267.171 54.1619V65.103H263.654V44.2344ZM270.749 53.9531C272.955 53.9531 274.207 52.9097 274.207 50.6439C274.207 48.2592 272.955 47.3647 270.749 47.3647H267.171V53.9531H270.749Z" fill="white"/>
<path d="M282.433 44.2344H294.954V47.4541H285.951V52.9096H294.656V56.0399H285.951V61.9727H295.073V65.103H282.433L282.433 44.2344Z" fill="white"/>
<path d="M298.769 54.6699C298.769 47.1575 302.287 43.8184 307.295 43.8184C311.678 43.8184 314.897 46.1436 315.255 51.1524H311.618C311.32 48.3499 309.74 47.0681 307.295 47.0681C304.343 47.0681 302.435 49.0356 302.435 54.7295C302.435 60.6027 304.224 62.3913 307.444 62.3913C310.008 62.3913 311.618 61.02 311.737 57.8303H307.176V54.7H315.195V65.1043H311.737V60.7517C311.171 63.9115 309.024 65.4917 306.281 65.4917C301.809 65.4915 298.769 62.3317 298.769 54.6699Z" fill="white"/>
<path d="M320.529 44.2344H324.047V65.103H320.529V44.2344Z" fill="white"/>
<path d="M328.637 54.6699C328.637 47.3364 332.095 43.8184 337.372 43.8184C342.619 43.8184 346.077 47.3364 346.077 54.6699C346.077 62.0034 342.619 65.4916 337.372 65.4916C332.095 65.4915 328.637 62.0034 328.637 54.6699ZM337.372 62.3612C340.442 62.3612 342.41 60.3938 342.41 54.7294C342.41 49.0355 340.442 47.068 337.372 47.068C334.301 47.068 332.304 49.0355 332.304 54.7294C332.304 60.3938 334.301 62.3612 337.372 62.3612Z" fill="white"/>
<path d="M353.927 46.2918V65.103H350.588V44.2344H356.491L363.556 62.4794V44.2344H366.895V65.103H361.261L353.927 46.2918Z" fill="white"/>
<path d="M372.468 44.2344H384.988V47.4541H375.985V52.9096H384.691V56.0399H375.985V61.9727H385.108V65.103H372.468V44.2344Z" fill="white"/>
<path d="M393.364 46.2918V65.103H390.025V44.2344H395.928L402.993 62.4794V44.2344H406.333V65.103H400.698L393.364 46.2918Z" fill="white"/>
<path d="M91.2786 12.959H94.9755L100.014 31.9194L105.052 12.959H108.629L102.905 33.8274H97.0025L91.2786 12.959Z" fill="white"/>
<path d="M121.739 28.0128H114.375L112.795 33.8262H109.248L115.091 12.9578H121.113L126.956 33.8262H123.319L121.739 28.0128ZM115.15 7.71094C116.224 7.71094 117.088 8.54574 117.088 9.61889C117.088 10.6623 116.224 11.5268 115.15 11.5268C114.047 11.5268 113.183 10.6623 113.183 9.61889C113.183 8.54574 114.047 7.71094 115.15 7.71094ZM120.874 24.8826L118.072 14.5379L115.24 24.8826H120.874ZM121.113 7.71094C122.186 7.71094 123.051 8.54574 123.051 9.61889C123.051 10.6623 122.186 11.5268 121.113 11.5268C120.01 11.5268 119.145 10.6623 119.145 9.61889C119.145 8.54574 120.01 7.71094 121.113 7.71094Z" fill="white"/>
<path d="M129.16 28.0711H132.767C133.066 30.0386 134.466 31.2312 137.06 31.2312C139.445 31.2312 140.757 29.9194 140.757 28.3395C140.757 26.6996 139.892 25.9543 137.656 25.3581L134.407 24.4638C131.754 23.7185 129.518 22.1684 129.518 18.7697C129.518 15.2818 132.201 12.5391 136.643 12.5391C141.085 12.5391 143.828 15.0729 144.125 19.0678H140.548C140.31 16.8917 138.968 15.6394 136.583 15.6394C134.228 15.6394 133.125 17.0406 133.125 18.5313C133.125 20.2304 134.168 21.0057 136.553 21.5722L139.356 22.2875C142.575 23.0923 144.364 24.8811 144.364 27.9517C144.364 31.4695 141.532 34.2123 137 34.2123C132.469 34.2123 129.429 31.9765 129.16 28.0711Z" fill="white"/>
<path d="M151.845 16.1787H146.687V12.959H160.52V16.1787H155.362V33.8274H151.845L151.845 16.1787Z" fill="white"/>
<path d="M164.275 12.959H171.967C176.021 12.959 178.347 15.165 178.347 19.0407C178.347 22.469 176.379 24.6751 172.802 24.9137L178.347 33.8273H174.531L167.793 22.8863V33.8274H164.275V12.959ZM171.371 22.6777C173.577 22.6777 174.829 21.6343 174.829 19.3685C174.829 16.9835 173.577 16.0893 171.371 16.0893H167.793V22.6777H171.371Z" fill="white"/>
<path d="M193.757 28.014H186.394L184.813 33.8274H181.266L187.109 12.959H193.131L198.974 33.8274H195.337L193.757 28.014ZM192.893 24.8838L190.09 14.5391L187.258 24.8838H192.893Z" fill="white"/>
<path d="M44.5384 50.0215C37.8942 50.6834 30.9362 48.4747 25.9224 44.5176L42.1763 72.4271C44.823 67.8823 56.0203 48.6554 58.43 44.5176C54.535 47.5731 49.7398 49.5584 44.5384 50.0215Z" fill="white"/>
<path d="M84.3553 0L59.5559 5.03285e-05C55.9485 0.0707618 50.9795 -0.199703 47.3601 0.479177C39.8316 1.86417 31.6242 6.45744 28.8285 16.2715C28.0925 19.0175 27.992 22.1261 28.7839 24.8974C30.8853 33.2008 39.9968 38.7416 47.7466 34.3738C51.2427 32.3726 53.4424 28.3497 53.1216 24.3185C52.8425 18.7375 47.726 14.1296 42.1719 14.2323C45.1566 11.6914 49.3167 10.5475 53.187 11.1768C53.187 11.1768 53.1871 11.1769 53.187 11.1768C61.8452 12.5707 67.7002 22.3085 66.2813 31.0333L84.3553 0Z" fill="white"/>
<path d="M36.6634 0H0L18.0721 31.0331C17.791 29.4634 17.6272 27.8419 17.6316 26.1912C17.6665 13.26 26.5442 3.85702 36.6634 0Z" fill="white"/>
</g>
<defs>
<clipPath id="clip0_2317_804">
<rect width="406.654" height="72.706" fill="white"/>
</clipPath>
</defs>
</svg>
